<svg xmlns="http://www.w3.org/2000/svg" xmlns:xlink="http://www.w3.org/1999/xlink" version="1.1" x="0px" y="0px" viewBox="0 0 100 125" enable-background="new 0 0 100 100" xml:space="preserve"><path d="M58.3,48.9c5.5-4.3,9.2-12.3,9.2-19.9c0-11-7.8-17-17.5-17s-17.5,6-17.5,17c0,7.6,3.7,15.7,9.2,19.9  c-13.4,3-23.2,12.9-23.2,22.1c0,11,14.1,17,31.5,17c3.2,0,6.3-0.2,9.3-0.6C56,84.6,54,80.6,54,76c0-8.3,6.7-15,15-15  c4.8,0,9.1,2.3,11.9,5.8C78.5,59,69.7,51.5,58.3,48.9z"/><rect x="73.6" y="67.3" transform="matrix(0.7071 -0.7071 0.7071 0.7071 -27.641 73.8867)" width="3.6" height="6"/><rect x="64.8" y="72.8" transform="matrix(0.7071 -0.7071 0.7071 0.7071 -33.1708 71.5962)" width="10" height="6"/><polygon points="61.8,83.9 67.7,82.2 63.5,78 "/></svg>